<mxfile host="Electron" agent="Mozilla/5.0 (Macintosh; Intel Mac OS X 10_15_7) AppleWebKit/537.36 (KHTML, like Gecko) draw.io/26.0.9 Chrome/128.0.6613.186 Electron/32.2.5 Safari/537.36" version="26.0.9">
  <diagram name="Page-1" id="FosyNxAPTqiQIwhxfqPS">
    <mxGraphModel dx="2954" dy="1214" grid="1" gridSize="10" guides="1" tooltips="1" connect="1" arrows="1" fold="1" page="0" pageScale="1" pageWidth="827" pageHeight="1169" math="0" shadow="0">
      <root>
        <mxCell id="0" />
        <mxCell id="1" parent="0" />
        <mxCell id="wMBATnTAcRVz2XR3FJaL-8" value="" style="ellipse;shape=cloud;whiteSpace=wrap;html=1;" vertex="1" parent="1">
          <mxGeometry x="440" y="136.66000000000005" width="160" height="106.67" as="geometry" />
        </mxCell>
        <mxCell id="wMBATnTAcRVz2XR3FJaL-9" value="API Gateway" style="text;html=1;align=center;verticalAlign=middle;whiteSpace=wrap;rounded=0;" vertex="1" parent="1">
          <mxGeometry x="482" y="178.33" width="80" height="30" as="geometry" />
        </mxCell>
        <mxCell id="wMBATnTAcRVz2XR3FJaL-10" value="" style="shape=hexagon;perimeter=hexagonPerimeter2;whiteSpace=wrap;html=1;fixedSize=1;" vertex="1" parent="1">
          <mxGeometry x="790" y="150" width="120" height="80" as="geometry" />
        </mxCell>
        <mxCell id="wMBATnTAcRVz2XR3FJaL-11" value="" style="group" vertex="1" connectable="0" parent="1">
          <mxGeometry x="130" y="710" width="75" height="100" as="geometry" />
        </mxCell>
        <mxCell id="wMBATnTAcRVz2XR3FJaL-6" value="" style="shape=cylinder3;whiteSpace=wrap;html=1;boundedLbl=1;backgroundOutline=1;size=15;" vertex="1" parent="wMBATnTAcRVz2XR3FJaL-11">
          <mxGeometry width="75" height="100" as="geometry" />
        </mxCell>
        <mxCell id="wMBATnTAcRVz2XR3FJaL-7" value="Postgres" style="text;html=1;align=center;verticalAlign=middle;whiteSpace=wrap;rounded=0;" vertex="1" parent="wMBATnTAcRVz2XR3FJaL-11">
          <mxGeometry x="8" y="45" width="60" height="30" as="geometry" />
        </mxCell>
        <mxCell id="wMBATnTAcRVz2XR3FJaL-12" value="Web Client" style="text;html=1;align=center;verticalAlign=middle;whiteSpace=wrap;rounded=0;" vertex="1" parent="1">
          <mxGeometry x="810" y="175.00000000000003" width="80" height="30" as="geometry" />
        </mxCell>
        <mxCell id="wMBATnTAcRVz2XR3FJaL-13" value="" style="whiteSpace=wrap;html=1;fillColor=none;dashed=1;dashPattern=12 12;" vertex="1" parent="1">
          <mxGeometry x="340" y="520" width="794.48" height="480" as="geometry" />
        </mxCell>
        <mxCell id="wMBATnTAcRVz2XR3FJaL-17" value="" style="endArrow=classic;startArrow=classic;html=1;rounded=0;" edge="1" parent="1">
          <mxGeometry width="50" height="50" relative="1" as="geometry">
            <mxPoint x="525" y="493" as="sourcePoint" />
            <mxPoint x="525" y="263" as="targetPoint" />
          </mxGeometry>
        </mxCell>
        <mxCell id="wMBATnTAcRVz2XR3FJaL-19" value="" style="endArrow=classic;html=1;rounded=0;dashed=1;" edge="1" parent="1">
          <mxGeometry width="50" height="50" relative="1" as="geometry">
            <mxPoint x="849.5" y="490" as="sourcePoint" />
            <mxPoint x="850" y="270" as="targetPoint" />
          </mxGeometry>
        </mxCell>
        <mxCell id="wMBATnTAcRVz2XR3FJaL-20" value="&lt;b&gt;GRPC&lt;/b&gt;" style="text;html=1;align=center;verticalAlign=middle;whiteSpace=wrap;rounded=0;" vertex="1" parent="1">
          <mxGeometry x="540" y="460" width="60" height="30" as="geometry" />
        </mxCell>
        <mxCell id="wMBATnTAcRVz2XR3FJaL-21" value="&lt;b&gt;Websockets&lt;/b&gt;" style="text;html=1;align=center;verticalAlign=middle;whiteSpace=wrap;rounded=0;" vertex="1" parent="1">
          <mxGeometry x="750" y="460" width="80" height="30" as="geometry" />
        </mxCell>
      </root>
    </mxGraphModel>
  </diagram>
</mxfile>
